<?xml version="1.0" standalone="no"?>
<!DOCTYPE svg PUBLIC "-//W3C//DTD SVG 20010904//EN"
 "http://www.w3.org/TR/2001/REC-SVG-20010904/DTD/svg10.dtd">
<svg version="1.0" xmlns="http://www.w3.org/2000/svg"
 width="700.000000pt" height="700.000000pt" viewBox="0 0 700.000000 700.000000"
 preserveAspectRatio="xMidYMid meet">
<metadata>
Created by potrace 1.11, written by Peter Selinger 2001-2013
</metadata>
<g transform="translate(0.000000,700.000000) scale(0.100000,-0.100000)"
fill="#000000" stroke="none">
<path d="M186 6575 c-235 -95 -246 -425 -19 -537 99 -49 189 -43 304 19 6 4
38 -32 374 -422 108 -126 221 -257 250 -290 29 -33 63 -73 76 -88 l24 -28 88
89 88 88 -238 205 c-131 112 -254 218 -273 235 -72 65 -283 245 -301 258 -19
13 -19 15 5 67 115 251 -125 507 -378 404z"/>
<path d="M6592 6578 c-156 -59 -232 -253 -157 -403 l25 -50 -28 -25 c-42 -38
-140 -122 -312 -271 -86 -74 -231 -199 -323 -279 l-167 -144 87 -88 88 -89 19
23 c16 21 117 135 141 162 6 6 80 92 164 191 84 99 170 198 190 221 20 22 56
65 81 94 25 30 63 73 85 97 l40 43 53 -27 c141 -70 317 -5 392 144 19 38 24
64 25 123 0 122 -57 215 -168 271 -59 31 -165 34 -235 7z"/>
<path d="M3123 5914 c-4 -1 -20 -5 -35 -8 -38 -9 -95 -68 -107 -113 -5 -21
-12 -65 -16 -98 -3 -33 -8 -73 -10 -90 -5 -28 -8 -59 -21 -184 -3 -30 -9 -74
-13 -100 l-6 -45 -135 -46 c-74 -25 -196 -76 -271 -112 l-136 -65 -114 89
c-62 49 -129 101 -148 116 -19 15 -58 46 -87 69 -71 58 -123 75 -184 61 -39
-10 -84 -50 -342 -308 -369 -370 -362 -329 -113 -645 l163 -207 -17 -37 c-9
-20 -28 -58 -43 -86 -45 -87 -105 -237 -134 -333 -15 -50 -32 -91 -38 -90 -10
1 -41 -2 -146 -17 -14 -2 -47 -6 -75 -9 -46 -6 -76 -9 -180 -21 -95 -11 -122
-18 -155 -41 -75 -51 -74 -40 -74 -495 l-1 -406 27 -39 c44 -64 74 -76 208
-89 59 -6 202 -23 340 -41 68 -9 4382 -10 4465 -1 33 3 116 13 185 22 69 9
148 18 175 21 128 12 180 38 211 106 17 37 18 73 18 437 0 373 -1 398 -19 429
-25 41 -80 79 -125 86 -45 7 -124 17 -175 21 -22 2 -53 6 -70 9 -16 2 -55 7
-85 11 -30 3 -75 8 -100 11 -25 3 -49 4 -53 2 -4 -2 -29 60 -56 137 -37 109
-108 271 -179 406 -1 3 11 23 29 45 17 21 43 54 57 73 15 19 63 79 107 135
146 185 140 175 142 241 1 46 -3 66 -20 90 -12 16 -144 152 -293 302 -279 277
-295 290 -364 285 -45 -3 -66 -11 -102 -39 -19 -16 -50 -39 -68 -53 -31 -24
-169 -132 -235 -185 -16 -13 -41 -33 -56 -44 l-25 -19 -135 66 c-73 37 -192
87 -264 111 -71 24 -133 46 -137 50 -4 3 -9 31 -13 61 -3 30 -7 66 -10 80 -2
14 -7 50 -10 80 -3 30 -10 87 -15 125 -5 39 -12 92 -15 119 -8 69 -32 114 -78
144 l-40 26 -388 1 c-213 0 -391 0 -396 -1z m-641 -1752 c5 -5 13 -37 18 -72
5 -34 10 -63 12 -64 12 -7 115 -46 122 -46 4 0 27 16 50 35 24 19 51 35 62 35
23 0 154 -128 154 -151 0 -9 -18 -39 -39 -66 l-40 -49 21 -35 c11 -19 20 -36
20 -39 -3 -17 12 -50 24 -51 8 -1 19 -3 24 -4 6 -1 25 -3 43 -4 62 -2 69 -16
69 -126 1 -109 -7 -124 -66 -127 -17 0 -35 -2 -41 -3 -5 -2 -18 -3 -27 -4 -10
0 -18 -7 -18 -13 0 -7 -11 -36 -24 -65 -23 -48 -23 -52 -7 -70 37 -41 61 -77
61 -92 0 -23 -129 -151 -153 -151 -11 0 -40 17 -65 37 -42 34 -46 36 -76 24
-17 -7 -45 -18 -63 -23 -32 -11 -43 -36 -43 -97 0 -54 -17 -64 -124 -65 -113
-2 -122 3 -129 80 -6 65 -9 70 -55 84 -20 7 -41 16 -46 21 -17 16 -36 10 -83
-26 -25 -19 -54 -35 -65 -35 -25 0 -148 126 -148 152 0 12 16 40 35 64 38 45
40 55 25 82 -5 9 -16 33 -24 53 -14 36 -40 49 -100 49 -49 0 -59 20 -61 120
-2 123 10 136 121 132 17 -1 27 13 49 69 31 77 34 64 -27 133 -32 35 -22 61
49 130 37 36 74 66 83 66 16 0 51 -22 84 -52 11 -10 25 -18 32 -18 11 0 124
47 124 52 13 144 15 145 140 142 50 -1 96 -6 102 -12z m2255 -7 c7 -11 14 -33
14 -49 2 -47 6 -76 10 -79 10 -7 115 -47 123 -47 5 0 28 16 52 35 23 19 51 35
61 35 23 0 153 -128 153 -151 0 -9 -16 -37 -35 -62 -39 -51 -42 -63 -21 -92 7
-11 17 -34 20 -52 7 -31 10 -32 67 -39 88 -10 92 -15 93 -125 2 -105 -10 -128
-64 -130 -16 -1 -40 -2 -52 -3 -18 -1 -30 -15 -52 -61 -27 -59 -28 -60 -11
-92 10 -18 26 -41 36 -52 11 -11 19 -29 19 -39 0 -25 -127 -152 -152 -152 -11
0 -39 16 -62 35 -24 19 -48 35 -53 35 -25 0 -123 -51 -124 -65 -1 -8 -3 -19
-4 -25 -1 -5 -3 -23 -4 -38 -2 -56 -19 -66 -122 -67 -105 -1 -128 11 -130 65
-1 17 -3 35 -4 40 -1 6 -3 18 -4 28 0 10 -15 22 -33 28 -18 7 -47 17 -64 25
-30 12 -34 10 -76 -24 -25 -20 -54 -37 -64 -37 -24 0 -154 126 -154 150 0 9
16 38 35 63 19 25 35 49 35 54 0 6 -38 107 -46 121 -1 1 -23 5 -50 8 -97 9
-102 16 -99 143 2 92 13 111 66 111 61 0 86 11 97 43 5 18 16 46 23 64 12 30
11 34 -24 76 -20 25 -37 54 -37 65 0 25 128 152 154 152 10 0 39 -17 64 -37
42 -34 46 -36 76 -24 17 7 46 18 64 24 17 6 33 16 33 24 1 7 3 18 4 23 1 6 3
26 4 45 2 60 23 71 130 69 79 -1 96 -4 108 -19z"/>
<path d="M2289 3835 c-99 -26 -188 -110 -223 -212 -9 -24 -14 -70 -12 -110 4
-123 70 -224 184 -280 74 -36 191 -39 263 -7 121 56 200 179 195 306 -6 142
-89 252 -231 303 -34 13 -128 13 -176 0z"/>
<path d="M4540 3836 c-93 -29 -171 -97 -212 -184 -33 -71 -31 -187 6 -263 31
-66 98 -132 164 -162 70 -32 188 -30 262 4 110 52 183 161 184 278 1 85 -7
122 -37 174 -43 72 -119 132 -192 152 -47 12 -137 13 -175 1z"/>
<path d="M1525 2302 c-7 -7 51 -133 107 -235 57 -104 57 -98 -9 -181 -32 -40
-70 -89 -84 -107 -15 -19 -62 -79 -106 -134 -101 -129 -113 -146 -113 -167 0
-25 535 -558 559 -558 20 0 45 19 322 237 l166 130 69 -39 c149 -84 308 -151
486 -203 l97 -29 6 -56 c4 -30 9 -66 11 -80 2 -14 6 -50 9 -80 3 -30 8 -68 10
-85 2 -16 7 -52 10 -80 21 -180 27 -211 42 -222 13 -10 109 -13 400 -13 361 0
383 1 392 18 12 23 18 54 26 140 4 37 8 74 10 82 3 8 7 38 10 65 3 28 8 66 10
85 2 19 7 62 11 94 3 33 8 67 9 75 2 9 4 26 4 38 1 20 7 23 76 39 6 1 59 18
118 38 128 42 259 100 368 162 43 24 84 44 90 44 6 0 53 -32 103 -72 286 -226
369 -288 387 -288 27 0 559 533 559 561 0 17 -74 118 -203 279 -168 210 -166
207 -153 226 55 80 161 314 143 315 -15 1 -660 1 -668 0 -4 -1 -34 -38 -67
-84 -232 -319 -553 -525 -946 -609 -80 -16 -138 -21 -276 -22 -153 0 -201 4
-330 29 -110 21 -302 95 -419 161 -184 103 -374 273 -496 445 l-60 84 -338 0
c-186 0 -340 -2 -342 -3z"/>
</g>
</svg>
